<svg width="327" height="59" viewBox="0 0 327 59" fill="none" xmlns="http://www.w3.org/2000/svg">
<mask id="mask0_1_361" style="mask-type:luminance" maskUnits="userSpaceOnUse" x="36" y="8" width="33" height="51">
<path d="M36.9739 8.91147H68.9739V58.9636H36.9739V8.91147Z" fill="white"/>
</mask>
<g mask="url(#mask0_1_361)">
<path fill-rule="evenodd" clip-rule="evenodd" d="M66.2812 19.3281L37.4479 9.31772V48.4636L68.2864 59.1667L66.2812 19.3281Z" fill="#38B6FF"/>
</g>
<mask id="mask1_1_361" style="mask-type:luminance" maskUnits="userSpaceOnUse" x="36" y="0" width="65" height="17">
<path d="M36.9739 0H100.974V16.9115H36.9739V0Z" fill="white"/>
</mask>
<g mask="url(#mask1_1_361)">
<path fill-rule="evenodd" clip-rule="evenodd" d="M69.0833 -0.03125L100.719 7.88021L69.0833 15.7865L37.4479 7.88021L69.0833 -0.03125Z" fill="#38B6FF"/>
</g>
<mask id="mask2_1_361" style="mask-type:luminance" maskUnits="userSpaceOnUse" x="68" y="8" width="33" height="51">
<path d="M68.9739 8.91147H100.974V58.9636H68.9739V8.91147Z" fill="white"/>
</mask>
<g mask="url(#mask2_1_361)">
<path fill-rule="evenodd" clip-rule="evenodd" d="M71.8801 19.3281L100.719 9.31772V48.4636L69.8749 59.1667L71.8801 19.3281Z" fill="#38B6FF"/>
</g>
<path fill-rule="evenodd" clip-rule="evenodd" d="M37.4479 9.31772H13.6771C12.4792 9.31772 11.5 10.2969 11.5 11.4948C11.5 12.6927 12.4792 13.6719 13.6771 13.6719H37.4479C38.6458 13.6719 39.6198 12.6927 39.6198 11.4948L37.4479 9.31772Z" fill="#38B6FF"/>
<path fill-rule="evenodd" clip-rule="evenodd" d="M37.4479 18.0208H19.5469C18.3542 18.0208 17.375 18.9948 17.375 20.1927C17.375 21.3906 18.3542 22.3698 19.5469 22.3698H37.4479C38.6458 22.3698 39.6198 21.3906 39.6198 20.1927C39.6198 18.9948 38.6458 18.0208 37.4479 18.0208Z" fill="#38B6FF"/>
<path fill-rule="evenodd" clip-rule="evenodd" d="M37.4479 26.7188H17.151C15.9583 26.7188 14.9791 27.6979 14.9791 28.8906C14.9791 30.0885 15.9583 31.0677 17.151 31.0677H37.4479C38.6458 31.0677 39.6198 30.0885 39.6198 28.8906C39.6198 27.6979 38.6458 26.7188 37.4479 26.7188Z" fill="#38B6FF"/>
<path fill-rule="evenodd" clip-rule="evenodd" d="M37.4478 35.4167H29.1353C27.9374 35.4167 26.9583 36.3959 26.9583 37.5886C26.9583 38.7865 27.9374 39.7656 29.1353 39.7656H37.4478C38.6458 39.7656 39.6197 38.7865 39.6197 37.5886C39.6197 36.3959 38.6458 35.4167 37.4478 35.4167Z" fill="#38B6FF"/>
<path fill-rule="evenodd" clip-rule="evenodd" d="M37.4478 44.1146H23.2083C22.0155 44.1146 21.0364 45.0938 21.0364 46.2917C21.0364 47.4844 22.0155 48.4636 23.2083 48.4636H37.4478C38.6458 48.4636 39.6197 47.4844 39.6197 46.2917C39.6197 45.0938 38.6458 44.1146 37.4478 44.1146Z" fill="#38B6FF"/>
<path fill-rule="evenodd" clip-rule="evenodd" d="M22.2708 35.4167H17.7916C16.5937 35.4167 15.6198 36.3959 15.6198 37.5886C15.6198 38.7865 16.5937 39.7656 17.7916 39.7656H22.2708C23.4635 39.7656 24.4427 38.7865 24.4427 37.5886C24.4427 36.3959 23.4635 35.4167 22.2708 35.4167Z" fill="#38B6FF"/>
<path fill-rule="evenodd" clip-rule="evenodd" d="M12.8438 18.0208H5.32813C4.13542 18.0208 3.15625 18.9948 3.15625 20.1927C3.15625 21.3906 4.13542 22.3698 5.32813 22.3698H12.8438C14.0365 22.3698 15.0156 21.3906 15.0156 20.1927C15.0156 18.9948 14.0365 18.0208 12.8438 18.0208Z" fill="#38B6FF"/>
<mask id="mask3_1_361" style="mask-type:luminance" maskUnits="userSpaceOnUse" x="0" y="8" width="9" height="7">
<path d="M0 8.91147H8.97396V14.2448H0V8.91147Z" fill="white"/>
</mask>
<g mask="url(#mask3_1_361)">
<path fill-rule="evenodd" clip-rule="evenodd" d="M6.49479 9.31772H2.17188C0.973958 9.31772 0 10.2969 0 11.4948C0 12.6927 0.973958 13.6719 2.17188 13.6719H6.49479C7.6875 13.6719 8.66667 12.6927 8.66667 11.4948C8.66667 10.2969 7.6875 9.31772 6.49479 9.31772Z" fill="#38B6FF"/>
</g>
<mask id="mask4_1_361" style="mask-type:luminance" maskUnits="userSpaceOnUse" x="106" y="2" width="221" height="57">
<path d="M326.307 2.24481H106.307V58.2448H326.307V2.24481Z" fill="white"/>
</mask>
<g mask="url(#mask4_1_361)">
<path d="M124.285 47.0615C122.712 47.0615 121.066 46.8636 119.347 46.4782C117.639 46.0927 116.024 45.4521 114.514 44.5615C113.014 43.6605 111.764 42.4313 110.764 40.874C109.764 39.3219 109.191 37.3844 109.056 35.0615H117.097C117.472 36.5198 118.024 37.6448 118.764 38.4365C119.514 39.2282 120.358 39.7802 121.306 40.0823C122.264 40.3896 123.233 40.5407 124.222 40.5407C125.123 40.5407 125.962 40.4157 126.743 40.1657C127.535 39.9052 128.17 39.499 128.66 38.9573C129.16 38.4157 129.41 37.7177 129.41 36.8532C129.41 35.9782 129.076 35.2907 128.41 34.7907C127.743 34.2802 126.853 33.8636 125.743 33.5407C124.644 33.223 123.441 32.9157 122.139 32.624C120.748 32.3063 119.332 31.9469 117.889 31.5407C116.457 31.1396 115.139 30.5823 113.931 29.874C112.733 29.1657 111.764 28.2282 111.014 27.0615C110.274 25.8948 109.91 24.4052 109.91 22.5823C109.91 20.2907 110.457 18.4052 111.556 16.9157C112.665 15.4157 114.16 14.3011 116.035 13.5615C117.91 12.8115 119.972 12.4365 122.222 12.4365C124.54 12.4365 126.712 12.848 128.743 13.6657C130.785 14.473 132.483 15.6969 133.847 17.3323C135.207 18.973 136.061 21.0302 136.41 23.499H128.368C127.993 22.0719 127.248 20.9573 126.139 20.1657C125.04 19.374 123.681 18.9782 122.056 18.9782C120.957 18.9782 119.951 19.2073 119.035 19.6657C118.118 20.124 117.66 20.8844 117.66 21.9365C117.66 22.7177 117.978 23.3532 118.618 23.8532C119.254 24.3427 120.108 24.7386 121.181 25.0407C122.264 25.348 123.42 25.6448 124.66 25.9365C126.061 26.2594 127.498 26.624 128.972 27.0407C130.457 27.4573 131.816 28.0407 133.056 28.7907C134.306 29.5302 135.311 30.5146 136.076 31.749C136.853 32.973 137.243 34.5407 137.243 36.4573C137.243 38.6396 136.712 40.5198 135.66 42.1032C134.618 43.6761 133.129 44.8948 131.201 45.7698C129.285 46.6292 126.978 47.0615 124.285 47.0615Z" fill="white"/>
<path d="M158.788 47.0615C155.955 47.0615 153.486 46.6032 151.392 45.6865C149.309 44.7594 147.59 43.4886 146.247 41.874C144.898 40.2646 143.892 38.4157 143.226 36.3323C142.559 34.2386 142.226 32.0302 142.226 29.7073C142.226 27.3896 142.559 25.1969 143.226 23.124C143.892 21.0563 144.898 19.2177 146.247 17.6032C147.59 15.9938 149.309 14.7282 151.392 13.8115C153.486 12.8948 155.955 12.4365 158.788 12.4365C161.715 12.4365 164.215 12.9469 166.288 13.9573C168.372 14.9573 170.017 16.348 171.226 18.124C172.445 19.9052 173.205 21.9886 173.497 24.374H164.976C164.736 22.6552 164.028 21.3948 162.851 20.6032C161.684 19.8115 160.273 19.4157 158.622 19.4157C155.981 19.4157 153.955 20.3532 152.538 22.2282C151.132 24.0927 150.434 26.5823 150.434 29.7073C150.434 32.874 151.132 35.4052 152.538 37.2907C153.955 39.1657 155.981 40.1032 158.622 40.1032C160.273 40.1032 161.674 39.7021 162.83 38.8948C163.997 38.0771 164.71 36.8011 164.976 35.0615H173.497C173.205 37.4365 172.445 39.5355 171.226 41.3532C170.017 43.1605 168.372 44.5615 166.288 45.5615C164.215 46.5615 161.715 47.0615 158.788 47.0615Z" fill="white"/>
<path d="M185.225 46.3323H176.955L188.309 13.1448H196.746L208.1 46.3323H199.83L198.059 40.374H187.017L185.225 46.3323ZM192.538 21.7907L189.059 33.624H196.017L192.538 21.7907Z" fill="white"/>
<path d="M220.743 46.3323H212.952V13.1448H220.868L233.618 33.2907V13.1448H241.41V46.3323H233.493L220.743 26.0615V46.3323Z" fill="white"/>
<path d="M256.567 46.3323H248.776V13.1448H256.567V46.3323Z" fill="white"/>
<path d="M278.868 46.3323H271.097V20.1032H261.743V13.1448H288.222V20.1032H278.868V46.3323Z" fill="white"/>
<path d="M310.443 46.3323H302.256V33.1448L290.381 13.1448H299.485L306.36 25.624L313.214 13.1448H322.318L310.443 33.1448V46.3323Z" fill="white"/>
</g>
</svg>
